# xmcd
#
# Track frame offsets: 
#        150
#        10352
#        26023
#        36487
#        57956
#        74836
#        88705
#        109821
#        126895
#        141296
#        158227
#        177111
#        194388
#
# Disc length: 2938 seconds
#
# Revision: 1
# Processed by: cddbd v1.5.2PL0 Copyright (c) Steve Scherf et al.
# Submitted via: ExactAudioCopyFreeDBPlugin 1.0
#
DISCID=bf0b780d
DTITLE=Various Artist - Soul Revival (NPR Discover Songs)
DYEAR=2010
DGENRE=Soul
TTITLE0=Ryan Shaw - Do the 45
TTITLE1=Eli "Paperboy" Reed and The True Loves - Am I Wasting My Time?
TTITLE2=Raphael Saadiq - 100 Yard Dash
TTITLE3=Chaka Khan and Mary J. Blige - Disrespectful
TTITLE4=Sharon Jones and The Dap-Kings - 100 Days, 100 Nights
TTITLE5=James Hunter - No Smoke Without Fire
TTITLE6=Thelma Houston - Love and Happiness
TTITLE7=Ann Peebles - Tonight I'll Be Staying Here with You
TTITLE8=Lee Fields and The Expressions - Love Comes and Goes
TTITLE9=Bettye Lavette - Take Me Like I Am (Still Want to Be Your Baby
TTITLE9=)
TTITLE10=Steve Cropper and Felix Cavaliere - If It Wasn't for Loving Y
TTITLE10=ou
TTITLE11=The Revelations - How Do I Tell Him (ft Tre Williams)
TTITLE12=Candi Staton - His Hands
EXTD=
EXTT0=
EXTT1=
EXTT2=
EXTT3=
EXTT4=
EXTT5=
EXTT6=
EXTT7=
EXTT8=
EXTT9=
EXTT10=
EXTT11=
EXTT12=
PLAYORDER=
